<svg xmlns="http://www.w3.org/2000/svg" xmlns:xlink="http://www.w3.org/1999/xlink" width="342" height="118" viewBox="0 0 342 118">
  <defs>
    <clipPath id="clip-LogoClinica">
      <rect width="342" height="118"/>
    </clipPath>
  </defs>
  <g id="LogoClinica" clip-path="url(#clip-LogoClinica)">
    <g id="Grupo_225" data-name="Grupo 225" transform="translate(-3.846 -1.433)">
      <g id="Grupo_133" data-name="Grupo 133" transform="translate(30.276 19.433)">
        <path id="Trazado_4737" data-name="Trazado 4737" d="M80.31,30.127,40.152,38.51a9.929,9.929,0,0,0-7.667,11.714h0A9.929,9.929,0,0,0,44.2,57.891l10.389-2.169,5.3,25.4A9.929,9.929,0,0,0,71.6,88.794h0a9.929,9.929,0,0,0,7.667-11.713l-5.3-25.4,10.389-2.169a9.929,9.929,0,0,0,7.667-11.714h0A9.929,9.929,0,0,0,80.31,30.127Z" transform="translate(-32.276 -12.823)" fill="#09ccbe" stroke="#fff" stroke-miterlimit="10" stroke-width="3.351" style="isolation: isolate"/>
        <circle id="Elipse_27" data-name="Elipse 27" cx="9.186" cy="9.186" r="9.186" transform="translate(16.199)" fill="#09ccbe" stroke="#fff" stroke-miterlimit="10" stroke-width="3.351" style="isolation: isolate"/>
      </g>
      <g id="Grupo_134" data-name="Grupo 134" transform="translate(82.275 26.528)">
        <path id="Trazado_4738" data-name="Trazado 4738" d="M139.935,50.685,103.709,44.64a8.889,8.889,0,0,0-10.2,7.283h0a8.888,8.888,0,0,0,7.284,10.2l9.371,1.564L106.34,86.6a8.889,8.889,0,0,0,7.283,10.2h0a8.888,8.888,0,0,0,10.2-7.283L127.647,66.6l9.372,1.564a8.889,8.889,0,0,0,10.2-7.283h0A8.888,8.888,0,0,0,139.935,50.685Z" transform="translate(-93.388 -28.335)" fill="#3a4ca1" stroke="#fff" stroke-miterlimit="10" stroke-width="3" style="isolation: isolate"/>
        <circle id="Elipse_28" data-name="Elipse 28" cx="8.224" cy="8.224" r="8.224" transform="translate(22.063)" fill="#3a4ca1" stroke="#fff" stroke-miterlimit="10" stroke-width="3" style="isolation: isolate"/>
      </g>
      <g id="Grupo_135" data-name="Grupo 135" transform="translate(67.926 52.333)">
        <path id="Trazado_4739" data-name="Trazado 4739" d="M98.965,82.58H76.614a7.61,7.61,0,1,0,0,15.22h3.223v8.982a7.61,7.61,0,0,0,15.22,0V97.8h3.908a7.61,7.61,0,1,0,0-15.22Z" transform="translate(-69.004 -66.399)" fill="#00c5e9" stroke="#fff" stroke-miterlimit="10" stroke-width="3"/>
        <circle id="Elipse_29" data-name="Elipse 29" cx="6.65" cy="6.65" r="6.65" transform="translate(11.929)" fill="#00c5e9" stroke="#fff" stroke-miterlimit="10" stroke-width="3"/>
      </g>
      <text id="CLÍNICA_AMIS" data-name="CLÍNICA
AMIS" transform="translate(150.994 14.258)" fill="#3a4ca1" font-size="40" font-family="Raleway-Medium, Raleway" font-weight="500"><tspan x="0" y="38">CLÍNICA</tspan><tspan fill="#00c5e9" font-family="Raleway-ExtraBold, Raleway" font-weight="800"><tspan x="0" y="73">AMIS</tspan></tspan></text>
      <path id="Trazado_4740" data-name="Trazado 4740" d="M114.171,17.877h-3.5V14.845a3.643,3.643,0,0,0-3.632-3.633h0a3.643,3.643,0,0,0-3.633,3.633v3.032H99.9a3.632,3.632,0,0,0,0,7.264h3.5v3.032a3.643,3.643,0,0,0,3.633,3.633h0a3.643,3.643,0,0,0,3.632-3.633V25.141h3.5a3.632,3.632,0,1,0,0-7.264Z" transform="translate(157.409 50.221)" fill="#00c5e9"/>
    </g>
  </g>
</svg>
