<svg xmlns="http://www.w3.org/2000/svg" xmlns:xlink="http://www.w3.org/1999/xlink" width="80" height="80" viewBox="0 0 80 80">
  <defs>
    <clipPath id="clip-online">
      <rect width="80" height="80"/>
    </clipPath>
  </defs>
  <g id="online" clip-path="url(#clip-online)">
    <g id="internet" transform="translate(13 13.666)">
      <g id="Grupo_238" data-name="Grupo 238" transform="translate(0 0.001)">
        <g id="Grupo_237" data-name="Grupo 237" transform="translate(0 0)">
          <path id="Trazado_4817" data-name="Trazado 4817" d="M33.639,9.551A11.142,11.142,0,1,0,37.356,31.2a1.592,1.592,0,0,0-1.062-3,7.96,7.96,0,1,1,5.3-7.505,1.594,1.594,0,0,1-1.592,1.592H38.414V20.693A4.78,4.78,0,1,0,36.3,24.659a3.17,3.17,0,0,0,2.118.81h1.592a4.781,4.781,0,0,0,4.775-4.775A11.155,11.155,0,0,0,33.639,9.551Zm0,12.734a1.592,1.592,0,1,1,1.592-1.592A1.594,1.594,0,0,1,33.639,22.285ZM33.639,0A20.681,20.681,0,0,0,17.932,34.149L15.779,36.3l-1.125-1.125a1.592,1.592,0,0,0-2.251,0L.467,47.113a1.592,1.592,0,0,0,0,2.251l4.5,4.5a1.592,1.592,0,0,0,2.251,0L19.155,41.929a1.592,1.592,0,0,0,0-2.251L18.03,38.553,20.183,36.4A20.688,20.688,0,1,0,33.639,0ZM6.094,50.489,3.843,48.238l9.685-9.685L15.779,40.8ZM33.639,38.2A17.509,17.509,0,1,1,51.148,20.693,17.529,17.529,0,0,1,33.639,38.2Z" transform="translate(0 -0.001)" fill="#42d2c7"/>
        </g>
      </g>
    </g>
  </g>
</svg>
